<svg width="390" height="844" viewBox="0 0 390 844" fill="none" xmlns="http://www.w3.org/2000/svg">
<g clip-path="url(#clip0_0_121)">
<rect width="390" height="844" fill="#FFF8EB"/>
<path d="M88.7674 -174.524C65.0182 -187.325 49.7441 -198.27 19.196 -202.648C-7.53371 -206.479 -54.4801 -181.196 -41.9004 -18.7705C-34.2633 69.3375 -3.45453 325 189 325C381.755 325 425.759 127.029 432.888 -18.7706C440.017 -164.57 411.501 -187.919 386.55 -198.779C361.598 -209.64 340.212 -187.919 272.487 -159.836C218.307 -137.37 150.788 -150.475 123.801 -159.836C113.884 -161.616 102.082 -167.347 88.7674 -174.524Z" fill="white"/>
<path d="M108.761 179.301C107.07 182.541 105.625 184.625 105.046 188.793C104.54 192.439 107.88 198.844 129.335 197.128C140.973 196.086 174.875 192.127 174.875 165.871C174.875 139.574 148.593 133.326 129.335 132.354C110.076 131.381 106.992 135.271 105.557 138.676C104.123 142.08 106.992 144.997 110.701 154.237C113.669 161.628 111.938 170.84 110.701 174.522C110.466 175.875 109.709 177.485 108.761 179.301Z" fill="#94E7EC"/>
<path d="M209.251 251.175C212.437 252.895 214.486 254.365 218.584 254.953C222.169 255.468 228.467 252.071 226.78 230.252C225.755 218.417 221.862 183.939 196.045 183.939C170.187 183.939 164.043 210.667 163.087 230.252C162.131 249.838 165.956 252.974 169.303 254.433C172.651 255.892 175.52 252.974 184.605 249.202C191.873 246.184 200.931 247.944 204.551 249.202C205.881 249.441 207.465 250.211 209.251 251.175Z" fill="#FFBFC0"/>
<path d="M281.239 150.312C282.93 147.072 284.375 144.988 284.954 140.821C285.46 137.174 282.12 130.769 260.665 132.486C249.027 133.527 215.125 137.486 215.125 163.743C215.125 190.04 241.407 196.287 260.665 197.26C279.924 198.232 283.008 194.342 284.443 190.938C285.877 187.534 283.008 184.616 279.299 175.376C276.331 167.985 278.062 158.773 279.299 155.092C279.534 153.739 280.291 152.129 281.239 150.312Z" fill="#FE8C5C"/>
<path d="M180.749 78.8241C177.563 77.1045 175.514 75.6343 171.416 75.0462C167.83 74.5316 161.532 77.9279 163.22 99.7467C164.244 111.582 168.137 146.06 193.955 146.06C219.813 146.06 225.956 119.332 226.912 99.7467C227.869 80.1613 224.043 77.0247 220.696 75.5659C217.349 74.107 214.48 77.0247 205.395 80.7972C198.126 83.8151 189.069 82.0546 185.448 80.7972C184.118 80.558 182.535 79.7882 180.749 78.8241Z" fill="#DFC8FF"/>
</g>
<defs>
<clipPath id="clip0_0_121">
<rect width="390" height="844" fill="white"/>
</clipPath>
</defs>
</svg>
