<svg width="1440" height="1024" viewBox="0 0 1440 1024" fill="none" xmlns="http://www.w3.org/2000/svg">
<g clip-path="url(#clip0_37_298)">
<rect width="1440" height="1024" fill="white"/>
<rect width="1440" height="1024" fill="#FFF8EB"/>
<mask id="mask0_37_298" style="mask-type:alpha" maskUnits="userSpaceOnUse" x="849" y="155" width="270" height="247">
<path d="M1104.42 333.65C1110.97 345.876 1116.57 353.74 1118.8 369.466C1120.76 383.227 1107.84 407.395 1024.79 400.919C979.736 396.987 849.013 381.127 849.013 282.049C849.013 182.817 950.238 160.163 1024.79 156.493C1099.33 152.823 1111.27 167.503 1116.83 180.348C1122.38 193.194 1111.27 204.204 1096.91 239.069C1085.43 266.962 1092.13 301.721 1096.91 315.614C1097.82 320.72 1100.75 326.796 1104.42 333.65Z" fill="#A8A273"/>
</mask>
<g mask="url(#mask0_37_298)">
<path d="M1104.42 333.65C1110.97 345.876 1116.57 353.74 1118.8 369.466C1120.76 383.227 1107.84 407.395 1024.79 400.919C979.736 396.987 849.013 381.127 849.013 282.049C849.013 182.817 950.238 160.163 1024.79 156.493C1099.33 152.823 1111.27 167.503 1116.83 180.348C1122.38 193.194 1111.27 204.204 1096.91 239.069C1085.43 266.962 1092.13 301.721 1096.91 315.614C1097.82 320.72 1100.75 326.796 1104.42 333.65Z" fill="#FFBFC0"/>
<path d="M1152.65 418.596C1157.92 428.448 1162.43 434.785 1164.23 447.457C1165.81 458.546 1155.4 478.022 1088.52 472.803C1052.24 469.635 946.967 456.854 946.967 377.015C946.967 297.051 1028.48 278.796 1088.52 275.838C1148.55 272.881 1158.17 284.711 1162.64 295.062C1167.11 305.413 1158.17 314.285 1146.6 342.38C1137.35 364.857 1142.75 392.867 1146.6 404.062C1147.34 408.176 1149.7 413.072 1152.65 418.596Z" fill="#FE8C5C"/>
<path d="M982.258 92.7745C993.426 93.1358 1001.17 92.401 1013.04 97.1763C1023.43 101.355 1035.1 120.108 997.136 175.419C976.253 205.254 912.548 290.032 843.405 250.112C774.155 210.13 799.104 130.407 826.56 76.9368C854.016 23.4667 869.068 21.0552 880.268 22.358C891.468 23.6607 894.68 35.8423 913.23 59.9044C928.069 79.1541 955.025 88.4857 966.648 90.7453C970.577 92.1675 975.997 92.5719 982.258 92.7745Z" fill="#FE8C5C"/>
</g>
<path d="M866.52 1062.57C837.319 1078.15 818.539 1091.48 780.979 1096.81C748.113 1101.47 690.39 1070.69 705.858 872.993C715.248 765.749 753.129 454.56 989.761 454.56C1226.76 454.56 1280.87 695.528 1289.63 872.993C1298.4 1050.46 1263.34 1078.88 1232.66 1092.1C1201.98 1105.32 1175.68 1078.88 1092.41 1044.7C1025.79 1017.35 942.777 1033.3 909.595 1044.7C897.402 1046.86 882.891 1053.84 866.52 1062.57Z" fill="#DFC8FF"/>
<path d="M335.576 331.261C329.031 343.487 323.435 351.35 321.196 367.077C319.237 380.838 332.165 405.006 415.214 398.53C460.264 394.598 590.987 378.738 590.987 279.66C590.987 180.428 489.762 157.774 415.214 154.104C340.666 150.434 328.727 165.114 323.174 177.959C317.621 190.804 328.727 201.815 343.086 236.68C354.574 264.573 347.873 299.332 343.086 313.225C342.176 318.33 339.246 324.406 335.576 331.261Z" fill="#DFC8FF"/>
<path d="M573.48 1060.18C602.681 1075.77 621.461 1089.09 659.021 1094.42C691.887 1099.08 749.61 1068.31 734.142 870.604C724.752 763.36 686.871 452.172 450.239 452.172C213.238 452.172 159.133 693.14 150.367 870.604C141.602 1048.07 176.664 1076.49 207.342 1089.71C238.021 1102.93 264.317 1076.49 347.588 1042.31C414.205 1014.96 497.223 1030.91 530.405 1042.31C542.598 1044.47 557.109 1051.45 573.48 1060.18Z" fill="#94E7EC"/>
<path d="M945.633 1393.27C995.964 1415.63 1028.33 1434.74 1093.07 1442.39C1149.72 1449.07 1249.21 1404.93 1222.55 1121.3C1206.37 967.441 1141.07 521 733.216 521C324.721 521 231.465 866.7 216.357 1121.3C201.249 1375.89 261.681 1416.67 314.559 1435.63C367.437 1454.59 412.761 1416.67 556.287 1367.63C671.107 1328.4 814.197 1351.28 871.389 1367.63C892.405 1370.74 917.417 1380.74 945.633 1393.27Z" fill="white"/>
</g>
<defs>
<clipPath id="clip0_37_298">
<rect width="1440" height="1024" fill="white"/>
</clipPath>
</defs>
</svg>
