<svg width="1440" height="1024" viewBox="0 0 1440 1024" fill="none" xmlns="http://www.w3.org/2000/svg">
<g clip-path="url(#clip0_37_350)">
<rect width="1440" height="1024" fill="white"/>
<rect width="1440" height="1024" fill="#FFF8EB"/>
<path d="M313.485 416.473C301.579 438.853 291.399 453.246 287.327 482.033C283.764 507.221 307.279 551.46 458.345 539.606C540.292 532.409 778.074 503.377 778.074 322.021C778.074 140.383 593.948 98.9163 458.345 92.1984C322.743 85.4806 301.026 112.352 290.925 135.864C280.825 159.377 301.026 179.53 327.145 243.349C348.041 294.405 335.852 358.03 327.145 383.46C325.49 392.805 320.159 403.927 313.485 416.473Z" fill="#FE8C5C"/>
<path d="M1127.52 416.473C1139.42 438.853 1149.6 453.246 1153.67 482.033C1157.24 507.221 1133.72 551.46 982.655 539.606C900.708 532.409 662.926 503.377 662.926 322.021C662.926 140.383 847.052 98.9163 982.655 92.1984C1118.26 85.4806 1139.97 112.352 1150.07 135.864C1160.18 159.377 1139.97 179.53 1113.85 243.349C1092.96 294.405 1105.15 358.03 1113.85 383.46C1115.51 392.805 1120.84 403.927 1127.52 416.473Z" fill="#DFC8FF"/>
<path fill-rule="evenodd" clip-rule="evenodd" d="M720.5 178.409C685.431 212.151 662.926 258.521 662.926 322.023C662.926 378.655 686.112 420.433 720.5 451.332C754.888 420.433 778.074 378.655 778.074 322.023C778.074 258.521 755.569 212.151 720.5 178.409Z" fill="#94E7EC"/>
<path d="M945.633 1393.27C995.964 1415.63 1028.33 1434.74 1093.07 1442.39C1149.72 1449.07 1249.21 1404.93 1222.55 1121.3C1206.37 967.441 1141.07 521 733.216 521C324.721 521 231.465 866.7 216.357 1121.3C201.249 1375.89 261.681 1416.67 314.559 1435.63C367.437 1454.59 412.761 1416.67 556.287 1367.63C671.107 1328.4 814.197 1351.28 871.389 1367.63C892.405 1370.74 917.417 1380.74 945.633 1393.27Z" fill="white"/>
</g>
<defs>
<clipPath id="clip0_37_350">
<rect width="1440" height="1024" fill="white"/>
</clipPath>
</defs>
</svg>
