<svg width="390" height="844" viewBox="0 0 390 844" fill="none" xmlns="http://www.w3.org/2000/svg">
<g clip-path="url(#clip0_0_105)">
<rect width="390" height="844" fill="#FFF8EB"/>
<path d="M-45.3597 252.117C-52.3906 265.333 -58.4021 273.833 -60.8067 290.832C-62.9108 305.707 -49.0242 331.832 40.1866 324.832C88.5793 320.582 229 303.437 229 196.339C229 89.0738 120.266 64.5861 40.1866 60.6189C-39.8924 56.6518 -52.717 72.5204 -58.6819 86.4054C-64.6468 100.29 -52.717 112.192 -37.2925 149.88C-24.9529 180.03 -32.151 217.603 -37.2925 232.621C-38.2703 238.14 -41.418 244.708 -45.3597 252.117Z" fill="#FE8C5C"/>
<path d="M435.36 252.117C442.391 265.333 448.402 273.833 450.807 290.832C452.911 305.707 439.024 331.832 349.813 324.832C301.421 320.582 161 303.437 161 196.339C161 89.0738 269.734 64.5861 349.813 60.6189C429.892 56.6518 442.717 72.5204 448.682 86.4054C454.647 100.29 442.717 112.192 427.293 149.88C414.953 180.03 422.151 217.603 427.293 232.621C428.27 238.14 431.418 244.708 435.36 252.117Z" fill="#DFC8FF"/>
<path fill-rule="evenodd" clip-rule="evenodd" d="M195 111.529C174.29 131.455 161 158.838 161 196.339C161 229.782 174.693 254.454 195 272.701C215.307 254.454 229 229.782 229 196.339C229 158.838 215.71 131.455 195 111.529Z" fill="#94E7EC"/>
<path d="M301.233 874.524C324.982 887.325 340.256 898.27 370.804 902.648C397.534 906.479 444.48 881.196 431.9 718.771C424.263 630.663 393.455 375 201 375C8.24533 375 -35.7589 572.971 -42.8878 718.771C-50.0167 864.57 -21.501 887.919 3.45032 898.779C28.4016 909.64 49.7884 887.919 117.513 859.836C171.693 837.37 239.212 850.475 266.199 859.836C276.116 861.616 287.918 867.347 301.233 874.524Z" fill="white"/>
</g>
<defs>
<clipPath id="clip0_0_105">
<rect width="390" height="844" fill="white"/>
</clipPath>
</defs>
</svg>
