<svg width="1440" height="1024" viewBox="0 0 1440 1024" fill="none" xmlns="http://www.w3.org/2000/svg">
<g clip-path="url(#clip0_37_221)">
<rect width="1440" height="1024" fill="white"/>
<rect width="1440" height="1024" fill="#FFF8EB"/>
<mask id="mask0_37_221" style="mask-type:alpha" maskUnits="userSpaceOnUse" x="791" y="-48" width="432" height="478">
<path d="M1102.87 403.36C1124.29 414.913 1138.06 424.791 1165.62 428.742C1189.73 432.199 1232.07 409.381 1220.73 262.791C1213.84 183.273 1186.05 -47.4648 1012.46 -47.4648C838.602 -47.4648 798.911 131.206 792.481 262.791C786.051 394.376 811.771 415.449 834.277 425.251C856.782 435.052 876.072 415.449 937.158 390.104C986.027 369.828 1046.93 381.655 1071.27 390.104C1080.21 391.711 1090.86 396.883 1102.87 403.36Z" fill="#D9D6BD"/>
</mask>
<g mask="url(#mask0_37_221)">
<path d="M1102.87 403.36C1124.29 414.913 1138.06 424.791 1165.62 428.742C1189.73 432.199 1232.07 409.381 1220.73 262.791C1213.84 183.273 1186.05 -47.4648 1012.46 -47.4648C838.602 -47.4648 798.911 131.206 792.481 262.791C786.051 394.376 811.771 415.449 834.277 425.251C856.782 435.052 876.072 415.449 937.158 390.104C986.027 369.828 1046.93 381.655 1071.27 390.104C1080.21 391.711 1090.86 396.883 1102.87 403.36Z" fill="#94E7EC"/>
<path d="M1410.2 228.358C1424.8 214.368 1436.12 205.997 1446.3 185.213C1455.22 167.027 1448.1 127.698 1329.66 99.1887C1265.22 84.3038 1076.24 47.2824 1031.69 184.588C987.068 322.108 1117.7 399.191 1219.75 437.924C1321.81 476.658 1345.02 461.702 1358.52 446.407C1372.02 431.112 1361.52 410.841 1357.22 356.042C1353.78 312.203 1378.73 267.056 1391.64 249.963C1395.2 243.298 1402.01 236.201 1410.2 228.358Z" fill="#FFBFC0"/>
<path d="M1201.99 195.141C1212.6 192.333 1220.26 191.354 1230.23 184.056C1238.95 177.67 1244.51 156.692 1191.42 110.715C1162.39 86.004 1075.72 16.7455 1021.33 71.1363C966.853 125.612 1014.79 198.421 1057.24 244.897C1099.68 291.374 1114.86 290.436 1125.23 286.696C1135.59 282.956 1135.01 270.288 1145.59 242.584C1154.05 220.421 1177.13 205.335 1187.61 200.563C1190.95 198.303 1196.04 196.716 1201.99 195.141Z" fill="#FFBFC0"/>
</g>
<mask id="mask1_37_221" style="mask-type:alpha" maskUnits="userSpaceOnUse" x="54" y="-112" width="500" height="551">
<path d="M414.556 408.521C439.359 421.835 455.311 433.218 487.215 437.771C515.131 441.755 564.161 415.46 551.023 246.532C543.047 154.897 510.871 -111.001 309.874 -111C108.564 -111 62.6069 94.8965 55.1616 246.532C47.7162 398.168 77.4977 422.453 103.556 433.748C129.615 445.043 151.951 422.453 222.682 393.245C279.267 369.879 349.783 383.51 377.967 393.245C388.324 395.097 400.65 401.057 414.556 408.521Z" fill="#4B4820"/>
</mask>
<g mask="url(#mask1_37_221)">
<path d="M414.556 408.521C439.359 421.835 455.311 433.218 487.215 437.771C515.131 441.755 564.161 415.46 551.023 246.532C543.047 154.897 510.871 -111.001 309.874 -111C108.564 -111 62.6069 94.8965 55.1616 246.532C47.7162 398.168 77.4977 422.453 103.556 433.748C129.615 445.043 151.951 422.453 222.682 393.245C279.267 369.879 349.783 383.51 377.967 393.245C388.324 395.097 400.65 401.057 414.556 408.521Z" fill="#DFC8FF"/>
</g>
<mask id="mask2_37_221" style="mask-type:alpha" maskUnits="userSpaceOnUse" x="480" y="-71" width="387" height="423">
<path d="M759.214 329.146C778.381 339.379 790.707 348.128 815.36 351.627C836.932 354.69 874.819 334.479 864.667 204.642C858.503 134.212 833.64 -70.1558 678.324 -70.1558C522.767 -70.1558 487.254 88.0955 481.501 204.642C475.748 321.189 498.761 339.854 518.897 348.535C539.033 357.216 556.293 339.854 610.949 317.405C654.673 299.446 709.163 309.922 730.942 317.405C738.945 318.828 748.469 323.409 759.214 329.146Z" fill="#A8A273"/>
</mask>
<g mask="url(#mask2_37_221)">
<path d="M759.214 329.146C778.381 339.379 790.707 348.128 815.36 351.627C836.932 354.69 874.819 334.479 864.667 204.642C858.503 134.212 833.64 -70.1558 678.324 -70.1558C522.767 -70.1558 487.254 88.0955 481.501 204.642C475.748 321.189 498.761 339.854 518.897 348.535C539.033 357.216 556.293 339.854 610.949 317.405C654.673 299.446 709.163 309.922 730.942 317.405C738.945 318.828 748.469 323.409 759.214 329.146Z" fill="#FE8C5C"/>
<path d="M836.113 -198.032C835.002 -212.319 835.491 -222.275 828.697 -237.238C822.752 -250.332 798.105 -264.286 729.619 -212.755C692.702 -184.437 588.052 -98.3786 643.095 -11.8967C698.223 74.7201 798.667 38.5755 865.41 0.597C932.154 -37.3815 934.36 -56.7907 932.044 -71.0704C929.727 -85.3502 913.971 -88.8255 882.139 -111.326C856.673 -129.327 843.178 -163.369 839.614 -178.14C837.568 -183.099 836.736 -190.022 836.113 -198.032Z" fill="#DFC8FF"/>
</g>
<mask id="mask3_37_221" style="mask-type:alpha" maskUnits="userSpaceOnUse" x="69" y="75" width="582" height="640">
<path d="M489.44 680.463C518.302 695.977 536.864 709.242 573.989 714.548C606.473 719.191 663.526 688.549 648.238 491.699C638.957 384.918 601.516 75.0702 367.629 75.0703C133.377 75.0703 79.8994 315 71.2357 491.7C62.572 668.399 97.2268 696.697 127.55 709.859C157.873 723.021 183.864 696.698 266.169 662.662C332.013 635.434 414.067 651.317 446.864 662.662C458.916 664.82 473.259 671.765 489.44 680.463Z" fill="#D9D6BD"/>
</mask>
<g mask="url(#mask3_37_221)">
<path d="M489.44 680.463C518.302 695.977 536.864 709.242 573.989 714.548C606.473 719.191 663.526 688.549 648.238 491.699C638.957 384.918 601.516 75.0702 367.629 75.0703C133.377 75.0703 79.8994 315 71.2357 491.7C62.572 668.399 97.2268 696.697 127.55 709.859C157.873 723.021 183.864 696.698 266.169 662.662C332.013 635.434 414.067 651.317 446.864 662.662C458.916 664.82 473.259 671.765 489.44 680.463Z" fill="#94E7EC"/>
<path d="M-69.0204 214.507C-80.0235 235.026 -89.4311 248.222 -93.1942 274.616C-96.4868 297.71 -74.7552 338.271 64.8545 327.403C140.586 320.804 360.336 294.186 360.336 127.907C360.336 -38.6317 190.173 -76.651 64.8545 -82.8103C-60.4645 -88.9697 -80.5341 -64.3323 -89.8689 -42.7746C-99.2036 -21.2169 -80.5342 -2.73891 -56.3958 55.7749C-37.0851 102.586 -48.3497 160.922 -56.3958 184.238C-57.926 192.806 -62.8519 203.003 -69.0204 214.507Z" fill="#FFBFC0"/>
<path d="M441.442 10.2619C437.473 -0.425134 435.63 -8.0059 427.359 -18.599C420.122 -27.8679 399.03 -35.7963 360.383 10.4683C339.669 35.8163 282.23 112.044 341.558 171.585C400.978 231.219 466.375 193.187 506.745 157.358C547.115 121.528 544.438 106.614 539.589 96.0616C534.741 85.5091 522.462 84.5588 494.232 70.9324C471.647 60.0312 454.265 35.7234 448.396 24.9322C445.806 21.3997 443.668 16.2533 441.442 10.2619Z" fill="#FFBFC0"/>
</g>
<mask id="mask4_37_221" style="mask-type:alpha" maskUnits="userSpaceOnUse" x="476" y="131" width="559" height="619">
<path d="M879.232 715.725C906.966 730.689 924.804 743.483 960.478 748.601C991.693 753.079 1046.52 723.524 1031.83 533.655C1022.91 430.66 986.93 131.799 762.179 131.799C537.077 131.8 485.689 363.221 477.364 533.655C469.038 704.089 502.339 731.383 531.478 744.078C560.616 756.774 585.592 731.383 664.682 698.555C727.954 672.292 806.803 687.612 838.319 698.555C849.9 700.636 863.683 707.335 879.232 715.725Z" fill="#4B4820"/>
</mask>
<g mask="url(#mask4_37_221)">
<path d="M879.232 715.725C906.966 730.689 924.804 743.483 960.478 748.601C991.693 753.079 1046.52 723.524 1031.83 533.655C1022.91 430.66 986.93 131.799 762.179 131.799C537.077 131.8 485.689 363.221 477.364 533.655C469.038 704.089 502.339 731.383 531.478 744.078C560.616 756.774 585.592 731.383 664.682 698.555C727.954 672.292 806.803 687.612 838.319 698.555C849.9 700.636 863.683 707.335 879.232 715.725Z" fill="#FFBFC0"/>
<path d="M936.684 561.334C953.46 561.426 965.041 562.973 983.093 556.458C998.889 550.756 1017.29 523.176 962.996 437.713C933.097 391.591 841.589 260.283 735.907 316.468C630.059 372.741 663.654 494.23 702.276 576.322C740.899 658.415 763.37 662.904 780.24 661.579C797.11 660.255 802.517 642.092 831.513 606.909C854.711 578.762 895.611 566.243 913.161 563.501C919.126 561.583 927.279 561.283 936.684 561.334Z" fill="#FE8C5C"/>
<path d="M1079.48 382.578C1095.86 378.979 1107.5 377.942 1123.68 367.616C1137.84 358.581 1149.72 327.629 1077.96 256.197C1038.66 217.778 920.514 109.805 829.773 187.853C738.889 266.023 798.376 377.152 854.104 448.742C909.832 520.333 932.74 519.771 948.906 514.77C965.072 509.768 966.353 490.86 986.903 450.163C1003.34 417.604 1040.49 396.398 1057.01 389.865C1062.41 386.682 1070.29 384.596 1079.48 382.578Z" fill="#FE8C5C"/>
</g>
<mask id="mask5_37_221" style="mask-type:alpha" maskUnits="userSpaceOnUse" x="115" y="429" width="559" height="618">
<path d="M518.435 1012.98C546.169 1027.95 564.007 1040.74 599.681 1045.86C630.896 1050.34 685.721 1020.78 671.03 830.915C662.112 727.92 626.133 429.06 401.382 429.06C176.281 429.06 124.892 660.481 116.567 830.915C108.241 1001.35 141.542 1028.64 170.681 1041.34C199.819 1054.03 224.795 1028.64 303.885 995.815C367.157 969.553 446.007 984.872 477.522 995.815C489.103 997.896 502.886 1004.6 518.435 1012.98Z" fill="#A8A273"/>
</mask>
<g mask="url(#mask5_37_221)">
<path d="M518.435 1012.98C546.169 1027.95 564.007 1040.74 599.681 1045.86C630.896 1050.34 685.721 1020.78 671.03 830.915C662.112 727.92 626.133 429.06 401.382 429.06C176.281 429.06 124.892 660.481 116.567 830.915C108.241 1001.35 141.542 1028.64 170.681 1041.34C199.819 1054.03 224.795 1028.64 303.885 995.815C367.157 969.553 446.007 984.872 477.522 995.815C489.103 997.896 502.886 1004.6 518.435 1012.98Z" fill="#FE8C5C"/>
<path d="M118.1 461.419C102.166 469.454 90.754 473.656 75.4506 488.294C62.06 501.102 52.2901 534.992 127.578 586.138C168.775 613.452 292.117 688.122 376.684 586.086C461.382 483.89 395.691 390.091 336.204 334.413C276.718 278.735 254.159 285.543 238.531 294.906C222.903 304.269 222.834 323.339 205.136 369.242C190.978 405.965 155.681 437.097 139.802 448.073C134.68 452.697 127.033 456.915 118.1 461.419Z" fill="#DFC8FF"/>
<path d="M-2.73437 693.047C-11.6785 708.805 -19.0792 718.821 -23.2367 739.614C-26.8746 757.807 -13.8074 791.149 85.5313 789.55C139.458 788.124 296.359 778.046 305.788 645.857C315.231 513.461 197.059 474.654 108.792 463.437C20.5238 452.22 4.9349 470.794 -2.88839 487.461C-10.7116 504.128 1.44235 519.76 15.1935 567.495C26.1944 605.683 14.921 651.491 7.90922 669.621C6.34139 676.355 2.27987 684.213 -2.73437 693.047Z" fill="#DFC8FF"/>
</g>
<mask id="mask6_37_221" style="mask-type:alpha" maskUnits="userSpaceOnUse" x="600" y="295" width="786" height="867">
<path d="M1167.92 1115.25C1206.93 1136.27 1232.02 1154.23 1282.2 1161.42C1326.1 1167.71 1403.21 1126.2 1382.55 859.549C1370.01 714.902 1319.4 295.179 1003.29 295.179C686.683 295.179 614.405 620.19 602.696 859.549C590.986 1098.91 637.824 1137.24 678.807 1155.07C719.791 1172.9 754.919 1137.24 866.16 1091.14C955.152 1054.25 1066.05 1075.77 1110.38 1091.14C1126.67 1094.06 1146.06 1103.47 1167.92 1115.25Z" fill="#C0BB96"/>
</mask>
<g mask="url(#mask6_37_221)">
<path d="M1167.92 1115.25C1206.93 1136.27 1232.02 1154.23 1282.2 1161.42C1326.1 1167.71 1403.21 1126.2 1382.55 859.549C1370.01 714.902 1319.4 295.179 1003.29 295.179C686.683 295.179 614.405 620.19 602.696 859.549C590.986 1098.91 637.824 1137.24 678.807 1155.07C719.791 1172.9 754.919 1137.24 866.16 1091.14C955.152 1054.25 1066.05 1075.77 1110.38 1091.14C1126.67 1094.06 1146.06 1103.47 1167.92 1115.25Z" fill="#DFC8FF"/>
<path d="M1416.84 239.925C1418.5 212.577 1422.07 193.834 1413.07 163.801C1405.2 137.523 1361.91 104.996 1217.75 185.734C1139.89 230.28 917.661 367.514 999.715 544.978C1081.9 722.718 1282.91 679.026 1420.17 623.538C1557.44 568.051 1566.77 531.817 1566.13 504.187C1565.49 476.556 1536.38 466.081 1481.65 415.586C1437.87 375.189 1421.15 307.351 1418.26 278.482C1415.67 268.58 1415.91 255.257 1416.84 239.925Z" fill="#94E7EC"/>
</g>
<path d="M945.633 1393.27C995.964 1415.63 1028.33 1434.74 1093.07 1442.39C1149.72 1449.07 1249.21 1404.93 1222.55 1121.3C1206.37 967.441 1141.07 521 733.216 521C324.721 521 231.465 866.7 216.357 1121.3C201.249 1375.89 261.681 1416.67 314.559 1435.63C367.437 1454.59 412.761 1416.67 556.287 1367.63C671.107 1328.4 814.197 1351.28 871.389 1367.63C892.405 1370.74 917.417 1380.74 945.633 1393.27Z" fill="white"/>
</g>
<defs>
<clipPath id="clip0_37_221">
<rect width="1440" height="1024" fill="white"/>
</clipPath>
</defs>
</svg>
