<svg width="1440" height="1024" viewBox="0 0 1440 1024" fill="none" xmlns="http://www.w3.org/2000/svg">
<g clip-path="url(#clip0_37_153)">
<rect width="1440" height="1024" fill="white"/>
<rect width="1440" height="1024" fill="#FFF8EB"/>
<path d="M509.689 1050.82C532.163 1065.28 546.616 1077.65 575.524 1082.6C600.818 1086.93 645.242 1058.36 633.338 874.78C626.111 775.198 596.958 486.242 414.84 486.242C232.439 486.242 190.798 709.994 184.052 874.78C177.306 1039.57 204.291 1065.96 227.902 1078.23C251.513 1090.5 271.751 1065.96 335.838 1034.22C387.108 1008.82 451 1023.64 476.537 1034.22C485.921 1036.23 497.09 1042.7 509.689 1050.82Z" fill="#FE8C5C"/>
<path d="M1130.71 1050.82C1153.19 1065.28 1167.64 1077.65 1196.55 1082.6C1221.84 1086.93 1266.27 1058.36 1254.36 874.78C1247.14 775.198 1217.98 486.242 1035.86 486.242C853.464 486.242 811.823 709.994 805.077 874.78C798.331 1039.57 825.315 1065.96 848.926 1078.23C872.537 1090.5 892.775 1065.96 956.862 1034.22C1008.13 1008.82 1072.02 1023.64 1097.56 1034.22C1106.95 1036.23 1118.11 1042.7 1130.71 1050.82Z" fill="#DFC8FF"/>
<path d="M676.826 145.107C672.426 142.811 669.596 140.848 663.937 140.063C658.985 139.376 650.287 143.911 652.618 173.042C654.033 188.844 659.409 234.877 695.064 234.877C730.775 234.877 739.259 199.191 740.579 173.042C741.9 146.893 736.617 142.705 731.995 140.757C727.372 138.809 723.41 142.705 710.863 147.742C700.825 151.771 688.316 149.42 683.316 147.742C681.479 147.422 679.293 146.394 676.826 145.107Z" fill="#94E7EC"/>
<path d="M579.244 281.552C576.909 285.878 574.913 288.66 574.114 294.224C573.415 299.093 578.027 307.644 607.657 305.353C623.729 303.962 670.55 298.676 670.55 263.62C670.55 228.51 634.253 220.169 607.657 218.87C581.06 217.571 576.801 222.766 574.82 227.31C572.839 231.855 576.801 235.751 581.924 248.087C586.022 257.956 583.631 270.255 581.924 275.17C581.599 276.977 580.554 279.126 579.244 281.552Z" fill="#FFBFC0"/>
<path d="M716.185 379.299C720.585 381.595 723.414 383.558 729.074 384.343C734.026 385.03 742.723 380.495 740.393 351.364C738.978 335.562 733.602 289.529 697.946 289.529C662.236 289.529 653.752 325.215 652.431 351.364C651.11 377.513 656.393 381.701 661.016 383.649C665.639 385.597 669.601 381.701 682.148 376.664C692.186 372.635 704.694 374.985 709.694 376.664C711.531 376.984 713.718 378.012 716.185 379.299Z" fill="#FE8C5C"/>
<path d="M813.261 242.853C815.596 238.527 817.593 235.745 818.392 230.181C819.09 225.312 814.478 216.761 784.849 219.052C768.776 220.443 721.956 225.729 721.956 260.785C721.956 295.895 758.252 304.236 784.849 305.535C811.445 306.833 815.705 301.639 817.686 297.094C819.667 292.549 815.705 288.654 810.582 276.318C806.484 266.449 808.874 254.15 810.582 249.235C810.907 247.428 811.952 245.278 813.261 242.853Z" fill="#DFC8FF"/>
<path d="M945.633 1393.27C995.964 1415.63 1028.33 1434.74 1093.07 1442.38C1149.72 1449.07 1249.21 1404.92 1222.55 1121.3C1206.37 967.44 1141.07 520.999 733.216 520.999C324.721 520.999 231.465 866.699 216.357 1121.3C201.249 1375.89 261.681 1416.66 314.559 1435.63C367.437 1454.59 412.761 1416.66 556.287 1367.63C671.107 1328.39 814.197 1351.28 871.389 1367.63C892.405 1370.73 917.417 1380.74 945.633 1393.27Z" fill="white"/>
</g>
<defs>
<clipPath id="clip0_37_153">
<rect width="1440" height="1024" fill="white"/>
</clipPath>
</defs>
</svg>
