<svg width="28" height="28" viewBox="0 0 28 28" fill="none" xmlns="http://www.w3.org/2000/svg">
<path d="M21.534 5.49557C22.1298 5.31301 22.6223 5.1792 23.0015 5.09632C22.9188 5.47928 22.784 5.97775 22.5993 6.58145C22.1232 8.13749 21.3622 10.2444 20.493 12.5331C19.6256 14.817 18.6583 17.2615 17.774 19.4875C17.6708 19.7473 17.5687 20.0043 17.4679 20.2578C16.7229 22.1323 16.0543 23.8146 15.5863 25.0454L11.3322 17.1676L11.1902 16.9048L10.9274 16.7628L3.04953 12.5087C4.27017 12.0446 5.93729 11.3831 7.7965 10.6454C8.06513 10.5388 8.33777 10.4306 8.61365 10.3212C10.8433 9.43695 13.2923 8.4696 15.5793 7.60215C17.8711 6.73289 19.9797 5.97179 21.534 5.49557Z" stroke="#656366" stroke-width="2"/>
</svg>
