<svg width="390" height="844" viewBox="0 0 390 844" fill="none" xmlns="http://www.w3.org/2000/svg">
<g clip-path="url(#clip0_0_86)">
<rect width="390" height="844" fill="#FFF8EB"/>
<mask id="mask0_0_86" style="mask-type:alpha" maskUnits="userSpaceOnUse" x="249" y="127" width="113" height="103">
<path d="M355.906 201.391C358.645 206.509 360.988 209.8 361.925 216.382C362.745 222.142 357.334 232.258 322.572 229.548C303.716 227.902 249 221.263 249 179.793C249 138.258 291.369 128.776 322.572 127.24C353.775 125.704 358.772 131.848 361.097 137.225C363.421 142.601 358.772 147.21 352.762 161.803C347.954 173.478 350.759 188.027 352.762 193.842C353.143 195.979 354.37 198.522 355.906 201.391Z" fill="#A8A273"/>
</mask>
<g mask="url(#mask0_0_86)">
<path d="M355.906 201.391C358.645 206.509 360.988 209.8 361.925 216.382C362.745 222.142 357.334 232.258 322.572 229.548C303.716 227.902 249 221.263 249 179.793C249 138.258 291.369 128.776 322.572 127.24C353.775 125.704 358.772 131.848 361.097 137.225C363.421 142.601 358.772 147.21 352.762 161.803C347.954 173.478 350.759 188.027 352.762 193.842C353.143 195.979 354.37 198.522 355.906 201.391Z" fill="#FFBFC0"/>
<path d="M376.092 236.946C378.298 241.07 380.185 243.722 380.939 249.027C381.6 253.668 377.242 261.82 349.248 259.635C334.063 258.309 290 252.96 290 219.542C290 186.072 324.12 178.431 349.248 177.193C374.377 175.955 378.401 180.907 380.273 185.239C382.144 189.572 378.401 193.285 373.561 205.045C369.689 214.453 371.947 226.177 373.561 230.863C373.868 232.585 374.855 234.634 376.092 236.946Z" fill="#FE8C5C"/>
<path d="M304.772 100.569C309.446 100.72 312.686 100.413 317.657 102.412C322.007 104.161 326.888 112.01 310.999 135.161C302.258 147.649 275.594 183.134 246.653 166.425C217.667 149.69 228.11 116.321 239.602 93.9401C251.094 71.5595 257.394 70.5501 262.082 71.0954C266.77 71.6407 268.115 76.7395 275.879 86.811C282.09 94.8682 293.373 98.7741 298.238 99.7199C299.882 100.315 302.151 100.484 304.772 100.569Z" fill="#FE8C5C"/>
</g>
<path d="M256.328 506.492C244.106 513.014 236.245 518.59 220.523 520.821C206.767 522.772 182.606 509.891 189.081 427.141C193.011 382.252 208.866 252 307.912 252C407.112 252 429.759 352.86 433.428 427.141C437.096 501.421 422.421 513.317 409.58 518.85C396.739 524.383 385.732 513.317 350.878 499.009C322.995 487.563 288.246 494.24 274.358 499.009C269.254 499.916 263.18 502.836 256.328 506.492Z" fill="#DFC8FF"/>
<path d="M34.0943 200.391C31.3547 205.509 29.0123 208.8 28.0753 215.382C27.2555 221.142 32.6664 231.258 67.4279 228.548C86.2843 226.902 141 220.263 141 178.793C141 137.258 98.6311 127.776 67.4279 126.24C36.2247 124.703 31.2275 130.848 28.9033 136.225C26.579 141.601 31.2275 146.21 37.2377 160.803C42.0459 172.478 39.2412 187.027 37.2377 192.842C36.8568 194.979 35.6302 197.522 34.0943 200.391Z" fill="#DFC8FF"/>
<path d="M133.672 505.492C145.894 512.014 153.755 517.59 169.477 519.821C183.233 521.772 207.394 508.891 200.919 426.141C196.989 381.252 181.134 251 82.0879 251C-17.1122 251 -39.7587 351.86 -43.4276 426.141C-47.0965 500.421 -32.421 512.317 -19.58 517.85C-6.73893 523.383 4.26767 512.317 39.1219 498.009C67.0053 486.563 101.754 493.24 115.642 498.009C120.746 498.916 126.82 501.836 133.672 505.492Z" fill="#94E7EC"/>
<path d="M301.233 874.524C324.982 887.325 340.256 898.27 370.804 902.648C397.534 906.479 444.48 881.196 431.9 718.771C424.263 630.663 393.455 375 201 375C8.24533 375 -35.7589 572.971 -42.8878 718.771C-50.0167 864.57 -21.501 887.919 3.45032 898.779C28.4016 909.64 49.7884 887.919 117.513 859.836C171.693 837.37 239.212 850.475 266.199 859.836C276.116 861.616 287.918 867.347 301.233 874.524Z" fill="white"/>
</g>
<defs>
<clipPath id="clip0_0_86">
<rect width="390" height="844" fill="white"/>
</clipPath>
</defs>
</svg>
