<svg width="390" height="844" viewBox="0 0 390 844" fill="none" xmlns="http://www.w3.org/2000/svg">
<g clip-path="url(#clip0_0_42)">
<rect width="390" height="844" fill="#FFF8EB"/>
<mask id="mask0_0_42" style="mask-type:alpha" maskUnits="userSpaceOnUse" x="253" y="44" width="190" height="210">
<path d="M390.226 242.674C399.666 247.766 405.738 252.119 417.88 253.86C428.505 255.384 447.166 245.328 442.165 180.727C439.13 145.684 426.884 44 350.385 44C273.767 44 256.276 122.739 253.442 180.727C250.608 238.715 261.943 248.002 271.861 252.321C281.779 256.641 290.28 248.002 317.2 236.833C338.736 227.897 365.574 233.109 376.301 236.833C380.243 237.541 384.934 239.82 390.226 242.674Z" fill="#D9D6BD"/>
</mask>
<g mask="url(#mask0_0_42)">
<path d="M390.226 242.674C399.666 247.766 405.738 252.119 417.88 253.86C428.505 255.384 447.166 245.328 442.165 180.727C439.13 145.684 426.884 44 350.385 44C273.767 44 256.276 122.739 253.442 180.727C250.608 238.715 261.943 248.002 271.861 252.321C281.779 256.641 290.28 248.002 317.2 236.833C338.736 227.897 365.574 233.109 376.301 236.833C380.243 237.541 384.934 239.82 390.226 242.674Z" fill="#94E7EC"/>
<path d="M525.663 165.553C532.098 159.388 537.087 155.699 541.576 146.539C545.503 138.525 542.367 121.193 490.17 108.629C461.773 102.07 378.49 85.7546 358.858 146.264C339.195 206.868 396.762 240.837 441.737 257.907C486.712 274.977 496.94 268.386 502.889 261.645C508.839 254.905 504.212 245.972 502.318 221.822C500.802 202.503 511.798 182.607 517.485 175.074C519.055 172.137 522.055 169.009 525.663 165.553Z" fill="#FFBFC0"/>
<path d="M433.908 150.914C438.586 149.677 441.96 149.245 446.353 146.029C450.197 143.215 452.646 133.97 429.251 113.708C416.459 102.818 378.263 72.2967 354.293 96.2662C330.286 120.273 351.411 152.359 370.117 172.841C388.824 193.323 395.513 192.91 400.08 191.262C404.647 189.613 404.392 184.031 409.053 171.822C412.781 162.055 422.952 155.407 427.571 153.303C429.045 152.308 431.286 151.608 433.908 150.914Z" fill="#FFBFC0"/>
</g>
<mask id="mask1_0_42" style="mask-type:alpha" maskUnits="userSpaceOnUse" x="-72" y="16" width="220" height="242">
<path d="M86.8936 244.948C97.8243 250.816 104.854 255.832 118.914 257.839C131.216 259.595 152.823 248.006 147.034 173.562C143.519 133.179 129.339 16 40.7615 16C-47.954 16 -68.207 106.737 -71.4881 173.562C-74.7692 240.386 -61.6448 251.088 -50.1609 256.066C-38.6771 261.043 -28.8338 251.088 2.33668 238.217C27.2731 227.919 58.3487 233.926 70.7695 238.217C75.3336 239.032 80.7657 241.659 86.8936 244.948Z" fill="#4B4820"/>
</mask>
<g mask="url(#mask1_0_42)">
<path d="M86.8936 244.948C97.8243 250.816 104.854 255.832 118.914 257.839C131.216 259.594 152.823 248.006 147.034 173.561C143.519 133.179 129.339 16 40.7615 16C-47.954 16 -68.207 106.737 -71.4881 173.562C-74.7692 240.386 -61.6448 251.088 -50.1609 256.066C-38.6771 261.043 -28.8338 251.088 2.33668 238.217C27.2731 227.919 58.3487 233.926 70.7695 238.217C75.3336 239.032 80.7657 241.659 86.8936 244.948Z" fill="#DFC8FF"/>
<path d="M29.6466 -48.5342C24.0484 -50.266 20.3368 -51.9547 13.6318 -51.62C7.76489 -51.3271 -1.22619 -44.027 8.1238 -10.1167C13.3694 8.24445 30.438 61.1653 71.5483 53.2098C112.723 45.2419 114.001 1.45758 109.543 -29.7431C105.085 -60.9438 98.0363 -64.7145 92.261 -65.9852C86.4856 -67.2559 82.8082 -61.7676 69.4935 -53.0151C58.8417 -46.0131 43.8813 -46.0001 37.7326 -46.8689C35.5413 -46.8363 32.7851 -47.5633 29.6466 -48.5342Z" fill="#94E7EC"/>
<path d="M1.21978 -13.1574C-2.04494 -14.1673 -4.20948 -15.1522 -8.11966 -14.957C-11.5411 -14.7861 -16.7844 -10.5289 -11.3318 9.24664C-8.27264 19.9544 1.68131 50.8164 25.6557 46.1769C49.6675 41.5303 50.4132 15.9964 47.8134 -2.19895C45.2136 -20.3943 41.1028 -22.5934 37.7348 -23.3344C34.3668 -24.0754 32.2222 -20.8748 24.4574 -15.7706C18.2455 -11.6872 9.52108 -11.6796 5.93533 -12.1862C4.6574 -12.1673 3.05006 -12.5912 1.21978 -13.1574Z" fill="#94E7EC"/>
</g>
<mask id="mask2_0_42" style="mask-type:alpha" maskUnits="userSpaceOnUse" x="116" y="34" width="170" height="186">
<path d="M238.781 209.969C247.228 214.478 252.66 218.334 263.524 219.876C273.031 221.226 289.727 212.319 285.253 155.101C282.537 124.063 271.58 34 203.134 34C134.581 34 118.931 103.74 116.396 155.101C113.86 206.462 124.002 214.687 132.876 218.513C141.75 222.339 149.356 214.687 173.442 204.795C192.711 196.88 216.724 201.497 226.322 204.795C229.849 205.422 234.046 207.441 238.781 209.969Z" fill="#A8A273"/>
</mask>
<g mask="url(#mask2_0_42)">
<path d="M238.781 209.969C247.228 214.478 252.66 218.334 263.524 219.876C273.031 221.226 289.727 212.319 285.253 155.101C282.537 124.063 271.58 34 203.134 34C134.581 34 118.931 103.74 116.396 155.101C113.86 206.462 124.002 214.687 132.876 218.513C141.75 222.339 149.356 214.687 173.442 204.795C192.711 196.88 216.724 201.497 226.322 204.795C229.849 205.422 234.046 207.441 238.781 209.969Z" fill="#FE8C5C"/>
<path d="M272.67 -22.3544C272.18 -28.6509 272.396 -33.038 269.402 -39.6324C266.782 -45.4026 255.92 -51.5522 225.739 -28.843C209.47 -16.3632 163.352 21.5618 187.609 59.6736C211.903 97.8448 256.168 81.9162 285.581 65.1794C314.994 48.4426 315.967 39.8892 314.946 33.5962C313.925 27.3033 306.982 25.7717 292.953 15.8558C281.731 7.92314 275.784 -7.07896 274.213 -13.5884C273.311 -15.7738 272.945 -18.8244 272.67 -22.3544Z" fill="#DFC8FF"/>
</g>
<mask id="mask3_0_42" style="mask-type:alpha" maskUnits="userSpaceOnUse" x="-65" y="98" width="256" height="282">
<path d="M119.894 364.791C132.614 371.628 140.794 377.474 157.154 379.812C171.47 381.858 196.613 368.355 189.876 281.605C185.785 234.547 169.285 98 66.2134 98C-37.0192 98 -60.5863 203.735 -64.4043 281.605C-68.2223 359.475 -52.9503 371.945 -39.5873 377.746C-26.2242 383.546 -14.7702 371.946 21.5009 356.947C50.5177 344.947 86.6785 351.947 101.132 356.947C106.443 357.897 112.764 360.958 119.894 364.791Z" fill="#D9D6BD"/>
</mask>
<g mask="url(#mask3_0_42)">
<path d="M119.894 364.791C132.614 371.628 140.794 377.474 157.154 379.812C171.47 381.858 196.613 368.355 189.876 281.605C185.785 234.547 169.285 98 66.2134 98C-37.0192 98 -60.5863 203.735 -64.4043 281.605C-68.2223 359.475 -52.9503 371.945 -39.5873 377.746C-26.2242 383.546 -14.7702 371.946 21.5009 356.947C50.5177 344.947 86.6785 351.947 101.132 356.947C106.443 357.897 112.764 360.958 119.894 364.791Z" fill="#94E7EC"/>
<path d="M-126.214 159.448C-131.063 168.491 -135.208 174.307 -136.867 185.938C-138.318 196.115 -128.741 213.99 -67.2161 209.201C-33.8419 206.293 63 194.562 63 121.285C63 47.8926 -11.9892 31.1378 -67.2161 28.4235C-122.443 25.7091 -131.288 36.5666 -135.401 46.0668C-139.515 55.5671 -131.288 63.7102 -120.65 89.4967C-112.14 110.126 -117.104 135.834 -120.65 146.109C-121.324 149.885 -123.495 154.379 -126.214 159.448Z" fill="#FFBFC0"/>
<path d="M98.7425 69.4391C96.9931 64.7294 96.181 61.3887 92.5361 56.7204C89.3468 52.6357 80.052 49.1417 63.0204 69.5301C53.892 80.7007 28.5792 114.294 54.7243 140.533C80.9102 166.813 109.73 150.053 127.521 134.263C145.312 118.473 144.132 111.901 141.995 107.25C139.858 102.6 134.447 102.181 122.006 96.176C112.054 91.372 104.393 80.6598 101.807 75.9042C100.665 74.3475 99.7232 72.0795 98.7425 69.4391Z" fill="#FFBFC0"/>
</g>
<mask id="mask4_0_42" style="mask-type:alpha" maskUnits="userSpaceOnUse" x="114" y="123" width="246" height="272">
<path d="M291.672 380.33C303.894 386.925 311.755 392.563 327.477 394.819C341.233 396.792 365.393 383.767 358.919 300.094C354.989 254.705 339.133 123 240.088 123C140.888 123 118.241 224.985 114.572 300.094C110.904 375.203 125.579 387.231 138.42 392.826C151.261 398.42 162.268 387.231 197.122 372.764C225.005 361.19 259.754 367.942 273.642 372.764C278.746 373.681 284.82 376.633 291.672 380.33Z" fill="#4B4820"/>
</mask>
<g mask="url(#mask4_0_42)">
<path d="M291.672 380.33C303.894 386.925 311.755 392.563 327.477 394.819C341.233 396.792 365.393 383.767 358.919 300.094C354.989 254.705 339.133 123 240.088 123C140.888 123 118.241 224.985 114.572 300.094C110.904 375.203 125.579 387.231 138.42 392.826C151.261 398.42 162.268 387.231 197.122 372.764C225.005 361.19 259.754 367.942 273.642 372.764C278.746 373.681 284.82 376.633 291.672 380.33Z" fill="#FFBFC0"/>
<path d="M316.991 312.292C324.384 312.333 329.487 313.014 337.443 310.143C344.404 307.631 352.514 295.476 328.586 257.813C315.41 237.488 275.083 179.622 228.51 204.382C181.864 229.181 196.669 282.72 213.689 318.897C230.71 355.075 240.613 357.053 248.047 356.469C255.482 355.886 257.864 347.881 270.643 332.376C280.866 319.972 298.89 314.455 306.624 313.247C309.253 312.402 312.846 312.269 316.991 312.292Z" fill="#FE8C5C"/>
<path d="M379.919 233.516C387.14 231.93 392.269 231.473 399.398 226.922C405.636 222.941 410.875 209.3 379.252 177.821C361.929 160.89 309.865 113.307 269.876 147.702C229.824 182.151 256.04 231.124 280.598 262.674C305.157 294.223 315.253 293.976 322.377 291.771C329.501 289.567 330.066 281.235 339.122 263.3C346.367 248.952 362.737 239.606 370.017 236.727C372.395 235.324 375.871 234.405 379.919 233.516Z" fill="#FE8C5C"/>
</g>
<mask id="mask5_0_42" style="mask-type:alpha" maskUnits="userSpaceOnUse" x="-45" y="254" width="246" height="272">
<path d="M132.672 511.33C144.894 517.925 152.755 523.563 168.477 525.819C182.233 527.792 206.393 514.767 199.919 431.094C195.989 385.705 180.133 254 81.0879 254C-18.1122 254 -40.7587 355.985 -44.4276 431.094C-48.0965 506.203 -33.421 518.231 -20.58 523.826C-7.73892 529.42 3.26767 518.231 38.1219 503.764C66.0053 492.19 100.754 498.942 114.642 503.764C119.746 504.681 125.82 507.633 132.672 511.33Z" fill="#A8A273"/>
</mask>
<g mask="url(#mask5_0_42)">
<path d="M132.672 511.33C144.894 517.925 152.755 523.563 168.477 525.819C182.233 527.792 206.393 514.767 199.919 431.094C195.989 385.705 180.133 254 81.0879 254C-18.1122 254 -40.7587 355.985 -44.4276 431.094C-48.0965 506.203 -33.421 518.231 -20.58 523.826C-7.73892 529.42 3.26767 518.231 38.1219 503.764C66.0053 492.19 100.754 498.942 114.642 503.764C119.746 504.681 125.82 507.633 132.672 511.33Z" fill="#FE8C5C"/>
<path d="M-43.7517 268.26C-50.7735 271.801 -55.8029 273.653 -62.547 280.104C-68.4481 285.748 -72.7536 300.683 -39.575 323.223C-21.4197 335.26 32.936 368.166 70.2037 323.2C107.529 278.163 78.5801 236.826 52.3649 212.29C26.1497 187.753 16.2083 190.753 9.32112 194.879C2.4339 199.005 2.40356 207.41 -5.39561 227.639C-11.6349 243.822 -27.1901 257.542 -34.1877 262.379C-36.445 264.417 -39.8152 266.275 -43.7517 268.26Z" fill="#DFC8FF"/>
<path d="M-97.0024 370.337C-100.944 377.281 -104.205 381.696 -106.038 390.859C-107.641 398.876 -101.882 413.57 -58.1045 412.865C-34.3397 412.237 34.8054 407.795 38.9605 349.541C43.122 291.195 -8.95516 274.093 -47.854 269.15C-86.7528 264.207 -93.6226 272.392 -97.0703 279.737C-100.518 287.082 -95.1618 293.971 -89.1018 315.007C-84.2538 331.836 -89.2219 352.024 -92.3119 360.013C-93.0028 362.981 -94.7927 366.444 -97.0024 370.337Z" fill="#DFC8FF"/>
</g>
<mask id="mask6_0_42" style="mask-type:alpha" maskUnits="userSpaceOnUse" x="169" y="195" width="346" height="382">
<path d="M418.896 556.398C436.087 565.659 447.143 573.578 469.256 576.745C488.604 579.517 522.586 561.225 513.48 443.713C507.952 379.968 485.651 195 346.343 195C206.818 195 174.965 338.229 169.805 443.713C164.645 549.196 185.286 566.089 203.347 573.947C221.408 581.804 236.889 566.089 285.911 545.772C325.129 529.517 374.003 538.999 393.537 545.772C400.716 547.06 409.259 551.206 418.896 556.398Z" fill="#C0BB96"/>
</mask>
<g mask="url(#mask6_0_42)">
<path d="M418.896 556.398C436.087 565.659 447.143 573.578 469.256 576.745C488.604 579.517 522.586 561.225 513.48 443.713C507.952 379.968 485.651 195 346.343 195C206.818 195 174.965 338.229 169.805 443.713C164.645 549.196 185.286 566.089 203.347 573.947C221.408 581.804 236.889 566.089 285.911 545.772C325.129 529.517 374.003 538.999 393.537 545.772C400.716 547.06 409.259 551.206 418.896 556.398Z" fill="#DFC8FF"/>
<path d="M528.592 170.65C529.324 158.598 530.894 150.338 526.931 137.103C523.463 125.523 504.384 111.188 440.852 146.769C406.541 166.4 308.607 226.878 344.768 305.084C380.984 383.413 469.57 364.158 530.06 339.705C590.551 315.252 594.666 299.285 594.384 287.108C594.101 274.932 581.271 270.315 557.153 248.062C537.858 230.26 530.489 200.364 529.216 187.642C528.075 183.278 528.183 177.407 528.592 170.65Z" fill="#94E7EC"/>
</g>
<path d="M301.233 874.524C324.982 887.325 340.256 898.27 370.804 902.648C397.534 906.479 444.48 881.196 431.9 718.771C424.263 630.663 393.455 375 201 375C8.24533 375 -35.7589 572.971 -42.8878 718.771C-50.0167 864.57 -21.501 887.919 3.45032 898.779C28.4016 909.64 49.7884 887.919 117.513 859.836C171.693 837.37 239.212 850.475 266.199 859.836C276.116 861.616 287.918 867.347 301.233 874.524Z" fill="white"/>
</g>
<defs>
<clipPath id="clip0_0_42">
<rect width="390" height="844" fill="white"/>
</clipPath>
</defs>
</svg>
