<svg width="390" height="844" viewBox="0 0 390 844" fill="none" xmlns="http://www.w3.org/2000/svg">
<g clip-path="url(#clip0_0_19)">
<rect width="390" height="844" fill="#FFF8EB"/>
<path d="M83.7818 529.687C93.1226 534.722 99.1299 539.027 111.145 540.749C121.658 542.255 140.122 532.311 135.174 468.429C132.171 433.775 120.053 333.222 44.3598 333.222C-31.4516 333.222 -48.7587 411.085 -51.5626 468.429C-54.3664 525.772 -43.151 534.956 -33.3375 539.227C-23.5241 543.498 -15.1125 534.956 11.5241 523.91C32.8333 515.074 59.3889 520.229 70.003 523.91C73.9033 524.611 78.5452 526.865 83.7818 529.687Z" fill="#FE8C5C"/>
<path d="M389.782 529.687C399.123 534.722 405.13 539.027 417.145 540.749C427.658 542.255 446.122 532.311 441.174 468.429C438.171 433.775 426.053 333.222 350.36 333.222C274.548 333.222 257.241 411.085 254.437 468.429C251.634 525.772 262.849 534.956 272.662 539.227C282.476 543.498 290.887 534.956 317.524 523.91C338.833 515.074 365.389 520.229 376.003 523.91C379.903 524.611 384.545 526.865 389.782 529.687Z" fill="#C0BB96"/>
<path d="M389.782 529.687C399.123 534.722 405.13 539.027 417.145 540.749C427.658 542.255 446.122 532.311 441.174 468.429C438.171 433.775 426.053 333.222 350.36 333.222C274.548 333.222 257.241 411.085 254.437 468.429C251.634 525.772 262.849 534.956 272.662 539.227C282.476 543.498 290.887 534.956 317.524 523.91C338.833 515.074 365.389 520.229 376.003 523.91C379.903 524.611 384.545 526.865 389.782 529.687Z" fill="#DFC8FF"/>
<path d="M301.233 874.524C324.982 887.325 340.256 898.27 370.804 902.648C397.534 906.479 444.48 881.196 431.9 718.771C424.263 630.663 393.455 375 201 375C8.24533 375 -35.7589 572.971 -42.8878 718.771C-50.0167 864.57 -21.501 887.919 3.45032 898.779C28.4016 909.64 49.7884 887.919 117.513 859.836C171.693 837.37 239.212 850.475 266.199 859.836C276.116 861.616 287.918 867.347 301.233 874.524Z" fill="white"/>
<path d="M183.877 127.926C181.357 126.61 179.736 125.486 176.495 125.036C173.658 124.643 168.677 127.24 170.012 143.927C170.822 152.979 173.901 179.347 194.323 179.347C214.776 179.347 219.635 158.906 220.392 143.927C221.148 128.948 218.122 126.549 215.475 125.434C212.827 124.318 210.558 126.549 203.371 129.434C197.622 131.743 190.458 130.396 187.594 129.434C186.542 129.252 185.29 128.663 183.877 127.926Z" fill="#94E7EC"/>
<path d="M127.975 206.084C126.638 208.562 125.494 210.155 125.037 213.343C124.637 216.132 127.278 221.03 144.248 219.717C153.454 218.921 180.27 215.893 180.27 195.812C180.27 175.7 159.481 170.922 144.248 170.179C129.015 169.435 126.576 172.41 125.441 175.014C124.306 177.617 126.576 179.848 129.51 186.915C131.857 192.568 130.488 199.613 129.51 202.428C129.324 203.463 128.725 204.694 127.975 206.084Z" fill="#FFBFC0"/>
<path d="M206.423 262.074C208.944 263.39 210.564 264.514 213.806 264.964C216.642 265.357 221.623 262.76 220.289 246.073C219.478 237.021 216.399 210.653 195.978 210.653C175.524 210.653 170.665 231.094 169.909 246.073C169.152 261.052 172.178 263.451 174.826 264.566C177.473 265.682 179.743 263.451 186.929 260.565C192.678 258.257 199.842 259.604 202.706 260.565C203.758 260.748 205.011 261.337 206.423 262.074Z" fill="#FE8C5C"/>
<path d="M262.024 183.916C263.362 181.438 264.505 179.844 264.963 176.657C265.363 173.868 262.721 168.969 245.751 170.282C236.546 171.079 209.73 174.107 209.73 194.187C209.73 214.299 230.518 219.077 245.751 219.821C260.984 220.565 263.424 217.589 264.559 214.986C265.693 212.382 263.424 210.151 260.49 203.085C258.142 197.432 259.512 190.387 260.49 187.571C260.676 186.536 261.275 185.305 262.024 183.916Z" fill="#DFC8FF"/>
</g>
<defs>
<clipPath id="clip0_0_19">
<rect width="390" height="844" fill="white"/>
</clipPath>
</defs>
</svg>
